<mxfile host="app.diagrams.net" agent="Mozilla/5.0 (Windows NT 10.0; Win64; x64) AppleWebKit/537.36 (KHTML, like Gecko) Chrome/133.0.0.0 Safari/537.36" version="26.1.0">
  <diagram name="Sida-1" id="Nc39ZoOwCb8wQkVG9bUB">
    <mxGraphModel dx="3033" dy="1148" grid="1" gridSize="10" guides="1" tooltips="1" connect="1" arrows="1" fold="1" page="1" pageScale="1" pageWidth="827" pageHeight="1169" math="0" shadow="0">
      <root>
        <mxCell id="0" />
        <mxCell id="1" parent="0" />
        <mxCell id="TYtJpe8hq0c6kEm3nhar-1" value="&lt;p style=&quot;margin:0px;margin-top:4px;text-align:center;&quot;&gt;&lt;i&gt;&amp;lt;&amp;lt;Interface&amp;gt;&amp;gt;&lt;/i&gt;&lt;br&gt;&lt;b&gt;Movable&lt;/b&gt;&lt;/p&gt;&lt;hr size=&quot;1&quot; style=&quot;border-style:solid;&quot;&gt;&lt;p style=&quot;margin:0px;margin-left:4px;&quot;&gt;+ move(): void&lt;/p&gt;&lt;p style=&quot;margin:0px;margin-left:4px;&quot;&gt;+ turnLeft(): void&lt;/p&gt;&lt;p style=&quot;margin:0px;margin-left:4px;&quot;&gt;+ turnRight(): void&lt;/p&gt;" style="verticalAlign=top;align=left;overflow=fill;html=1;whiteSpace=wrap;strokeWidth=2;" parent="1" vertex="1">
          <mxGeometry x="475" y="40" width="190" height="100" as="geometry" />
        </mxCell>
        <mxCell id="TYtJpe8hq0c6kEm3nhar-3" value="&lt;p style=&quot;margin:0px;margin-top:4px;text-align:center;&quot;&gt;&lt;i&gt;&amp;lt;&amp;lt;Interface&amp;gt;&amp;gt;&lt;/i&gt;&lt;br&gt;&lt;b&gt;NonLoadable&lt;/b&gt;&lt;/p&gt;&lt;p style=&quot;margin:0px;margin-left:4px;&quot;&gt;&lt;br&gt;&lt;/p&gt;" style="verticalAlign=top;align=left;overflow=fill;html=1;whiteSpace=wrap;strokeWidth=2;" parent="1" vertex="1">
          <mxGeometry x="140" y="40" width="180" height="40" as="geometry" />
        </mxCell>
        <mxCell id="TYtJpe8hq0c6kEm3nhar-4" value="&lt;p style=&quot;margin:0px;margin-top:4px;text-align:center;&quot;&gt;&lt;b&gt;CarTransportTruck&lt;/b&gt;&lt;/p&gt;&lt;hr size=&quot;1&quot; style=&quot;border-style:solid;&quot;&gt;&lt;p style=&quot;margin:0px;margin-left:4px;&quot;&gt;- flatbedDown: boolean&lt;/p&gt;&lt;p style=&quot;margin:0px;margin-left:4px;&quot;&gt;- maxCars: int&lt;/p&gt;&lt;p style=&quot;margin:0px;margin-left:4px;&quot;&gt;+ xRange: int&lt;/p&gt;&lt;p style=&quot;margin:0px;margin-left:4px;&quot;&gt;+ yRange: double&lt;/p&gt;&lt;p style=&quot;margin:0px;margin-left:4px;&quot;&gt;- trimFactor: double&lt;/p&gt;&lt;hr size=&quot;1&quot; style=&quot;border-style:solid;&quot;&gt;&lt;p style=&quot;margin:0px;margin-left:4px;&quot;&gt;+ loadCar(Car): void&lt;/p&gt;&lt;p style=&quot;margin:0px;margin-left:4px;&quot;&gt;+ disengage(): void&lt;/p&gt;&lt;p style=&quot;margin:0px;margin-left:4px;&quot;&gt;&lt;span style=&quot;background-color: transparent; color: light-dark(rgb(0, 0, 0), rgb(255, 255, 255));&quot;&gt;+ move(): void&lt;/span&gt;&lt;/p&gt;&lt;p style=&quot;margin:0px;margin-left:4px;&quot;&gt;#&lt;span style=&quot;background-color: transparent; color: light-dark(rgb(0, 0, 0), rgb(255, 255, 255));&quot;&gt;&amp;nbsp;speedFactor(): double&lt;/span&gt;&lt;/p&gt;&lt;p style=&quot;margin:0px;margin-left:4px;&quot;&gt;&lt;span style=&quot;background-color: transparent; color: light-dark(rgb(0, 0, 0), rgb(255, 255, 255));&quot;&gt;+ startEngine(): void&lt;br&gt;&lt;/span&gt;&lt;/p&gt;&lt;p style=&quot;margin:0px;margin-left:4px;&quot;&gt;&lt;span style=&quot;background-color: transparent; color: light-dark(rgb(0, 0, 0), rgb(255, 255, 255));&quot;&gt;+ gas(double): void&lt;br&gt;&lt;/span&gt;&lt;/p&gt;" style="verticalAlign=top;align=left;overflow=fill;html=1;whiteSpace=wrap;" parent="1" vertex="1">
          <mxGeometry x="190" y="490" width="160" height="220" as="geometry" />
        </mxCell>
        <mxCell id="TYtJpe8hq0c6kEm3nhar-5" value="&lt;p style=&quot;margin:0px;margin-top:4px;text-align:center;&quot;&gt;&lt;b&gt;DrawPanel&amp;lt;ACar extends Car&amp;gt;&lt;/b&gt;&lt;/p&gt;&lt;hr size=&quot;1&quot; style=&quot;border-style:solid;&quot;&gt;&lt;p style=&quot;margin:0px;margin-left:4px;&quot;&gt;~ carImage: BufferedImage&lt;/p&gt;&lt;p style=&quot;margin:0px;margin-left:4px;&quot;&gt;~ WorkshopImage: BufferedImage&lt;span style=&quot;white-space: pre;&quot;&gt;&#x9;&lt;/span&gt;&lt;/p&gt;&lt;p style=&quot;margin:0px;margin-left:4px;&quot;&gt;- cars: ArrayList&amp;lt;ACar&amp;gt;&lt;/p&gt;&lt;p style=&quot;margin:0px;margin-left:4px;&quot;&gt;- workshops:&amp;nbsp; &amp;nbsp; &amp;nbsp; &amp;nbsp; &amp;nbsp; &amp;nbsp; &amp;nbsp; &amp;nbsp; &amp;nbsp; &amp;nbsp;&lt;/p&gt;&lt;p style=&quot;margin:0px;margin-left:4px;&quot;&gt;&amp;nbsp; ArrayList&amp;lt;AutorepairShop&amp;gt;&lt;/p&gt;&lt;hr size=&quot;1&quot; style=&quot;border-style:solid;&quot;&gt;&lt;p style=&quot;margin:0px;margin-left:4px;&quot;&gt;# paintComponent(Graphics): void&lt;/p&gt;" style="verticalAlign=top;align=left;overflow=fill;html=1;whiteSpace=wrap;" parent="1" vertex="1">
          <mxGeometry x="1290" y="200" width="200" height="140" as="geometry" />
        </mxCell>
        <mxCell id="TYtJpe8hq0c6kEm3nhar-6" value="&lt;p style=&quot;margin:0px;margin-top:4px;text-align:center;&quot;&gt;&lt;b&gt;&amp;lt;&amp;lt;Abstract&amp;gt;&amp;gt;&lt;/b&gt;&lt;/p&gt;&lt;p style=&quot;margin:0px;margin-top:4px;text-align:center;&quot;&gt;&lt;b&gt;Car&lt;/b&gt;&lt;/p&gt;&lt;hr size=&quot;1&quot; style=&quot;border-style:solid;&quot;&gt;&lt;p style=&quot;margin:0px;margin-left:4px;&quot;&gt;# nrDoors: int&lt;/p&gt;&lt;p style=&quot;margin:0px;margin-left:4px;&quot;&gt;# enginePower: double&lt;/p&gt;&lt;p style=&quot;margin:0px;margin-left:4px;&quot;&gt;# currentSpeed: double&lt;/p&gt;&lt;p style=&quot;margin:0px;margin-left:4px;&quot;&gt;# color: Color&lt;/p&gt;&lt;p style=&quot;margin:0px;margin-left:4px;&quot;&gt;# modelname: String&lt;/p&gt;&lt;p style=&quot;margin:0px;margin-left:4px;&quot;&gt;- direction: String&lt;/p&gt;&lt;p style=&quot;margin:0px;margin-left:4px;&quot;&gt;# x: double&lt;/p&gt;&lt;p style=&quot;margin:0px;margin-left:4px;&quot;&gt;# y: double&lt;/p&gt;&lt;p style=&quot;margin:0px;margin-left:4px;&quot;&gt;# isLoaded: boolean&lt;/p&gt;&lt;p style=&quot;margin:0px;margin-left:4px;&quot;&gt;# pic: String&lt;/p&gt;&lt;hr size=&quot;1&quot; style=&quot;border-style:solid;&quot;&gt;&lt;p style=&quot;margin:0px;margin-left:4px;&quot;&gt;+ startEngine(): void&lt;/p&gt;&lt;p style=&quot;margin:0px;margin-left:4px;&quot;&gt;+ stopEnginge(): void&lt;/p&gt;&lt;p style=&quot;margin:0px;margin-left:4px;&quot;&gt;+ speedFactor(): double {abstract}&lt;/p&gt;&lt;p style=&quot;margin:0px;margin-left:4px;&quot;&gt;+ gas(double): void&lt;/p&gt;&lt;p style=&quot;margin:0px;margin-left:4px;&quot;&gt;+ brake(double): void&lt;/p&gt;&lt;p style=&quot;margin:0px;margin-left:4px;&quot;&gt;+ incrementSpeed(double): void&lt;/p&gt;&lt;p style=&quot;margin:0px;margin-left:4px;&quot;&gt;+ decrementSpeed(double): void&lt;/p&gt;&lt;p style=&quot;margin:0px;margin-left:4px;&quot;&gt;+ turnLeft(): void&lt;/p&gt;&lt;p style=&quot;margin:0px;margin-left:4px;&quot;&gt;+ turnRight(): void&lt;/p&gt;&lt;p style=&quot;margin:0px;margin-left:4px;&quot;&gt;&lt;br&gt;&lt;/p&gt;" style="verticalAlign=top;align=left;overflow=fill;html=1;whiteSpace=wrap;strokeWidth=2;" parent="1" vertex="1">
          <mxGeometry x="380" y="200" width="380" height="210" as="geometry" />
        </mxCell>
        <mxCell id="TYtJpe8hq0c6kEm3nhar-7" value="&lt;p style=&quot;margin:0px;margin-top:4px;text-align:center;&quot;&gt;&lt;b&gt;Scania&lt;/b&gt;&lt;/p&gt;&lt;hr size=&quot;1&quot; style=&quot;border-style:solid;&quot;&gt;&lt;p style=&quot;margin:0px;margin-left:4px;&quot;&gt;- flatBedAngle: double&lt;/p&gt;&lt;p style=&quot;margin:0px;margin-left:4px;&quot;&gt;- trimfactor: double&lt;/p&gt;&lt;hr size=&quot;1&quot; style=&quot;border-style:solid;&quot;&gt;&lt;p style=&quot;margin:0px;margin-left:4px;&quot;&gt;# tiltFlatbed(double): void&lt;/p&gt;&lt;p style=&quot;margin:0px;margin-left:4px;&quot;&gt;+ getFlatbedAngle(): double&lt;/p&gt;&lt;p style=&quot;margin:0px;margin-left:4px;&quot;&gt;+ startEngine(): void&lt;/p&gt;&lt;p style=&quot;margin:0px;margin-left:4px;&quot;&gt;+ gas(double): : void&lt;/p&gt;&lt;p style=&quot;margin:0px;margin-left:4px;&quot;&gt;# speedFactor(): double&lt;/p&gt;&lt;p style=&quot;margin:0px;margin-left:4px;&quot;&gt;&lt;br&gt;&lt;/p&gt;" style="verticalAlign=top;align=left;overflow=fill;html=1;whiteSpace=wrap;" parent="1" vertex="1">
          <mxGeometry x="390" y="490" width="160" height="150" as="geometry" />
        </mxCell>
        <mxCell id="TYtJpe8hq0c6kEm3nhar-8" value="&lt;p style=&quot;margin:0px;margin-top:4px;text-align:center;&quot;&gt;&lt;b&gt;AutoRepairShop&amp;lt;T extends Car&amp;gt;&lt;/b&gt;&lt;/p&gt;&lt;hr size=&quot;1&quot; style=&quot;border-style:solid;&quot;&gt;&lt;p style=&quot;margin:0px;margin-left:4px;&quot;&gt;- maxCars: int&lt;/p&gt;&lt;p style=&quot;margin:0px;margin-left:4px;&quot;&gt;~ cars: ArrayList&amp;lt;T&amp;gt;&lt;/p&gt;&lt;p style=&quot;margin:0px;margin-left:4px;&quot;&gt;# pic: String&lt;/p&gt;&lt;p style=&quot;margin:0px;margin-left:4px;&quot;&gt;~ x, y: int&lt;/p&gt;&lt;p style=&quot;margin:0px;margin-left:4px;&quot;&gt;- brandName: String&lt;/p&gt;&lt;hr size=&quot;1&quot; style=&quot;border-style:solid;&quot;&gt;&lt;p style=&quot;margin:0px;margin-left:4px;&quot;&gt;+ addCar(T car): void&lt;/p&gt;&lt;p style=&quot;margin:0px;margin-left:4px;&quot;&gt;+ removeCar(T car): T&lt;/p&gt;" style="verticalAlign=top;align=left;overflow=fill;html=1;whiteSpace=wrap;" parent="1" vertex="1">
          <mxGeometry x="-50" y="490" width="200" height="150" as="geometry" />
        </mxCell>
        <mxCell id="TYtJpe8hq0c6kEm3nhar-9" value="&lt;p style=&quot;margin:0px;margin-top:4px;text-align:center;&quot;&gt;&lt;b&gt;Saab95&lt;/b&gt;&lt;/p&gt;&lt;hr size=&quot;1&quot; style=&quot;border-style:solid;&quot;&gt;&lt;p style=&quot;margin:0px;margin-left:4px;&quot;&gt;- turboOn: boolean&lt;/p&gt;&lt;hr size=&quot;1&quot; style=&quot;border-style:solid;&quot;&gt;&lt;p style=&quot;margin:0px;margin-left:4px;&quot;&gt;+ setTuboOn(): void&lt;/p&gt;&lt;p style=&quot;margin:0px;margin-left:4px;&quot;&gt;+ setTurboOff(): void&lt;/p&gt;" style="verticalAlign=top;align=left;overflow=fill;html=1;whiteSpace=wrap;" parent="1" vertex="1">
          <mxGeometry x="790" y="490" width="160" height="90" as="geometry" />
        </mxCell>
        <mxCell id="TYtJpe8hq0c6kEm3nhar-12" value="&lt;p style=&quot;margin:0px;margin-top:4px;text-align:center;&quot;&gt;&lt;b&gt;CarView&lt;/b&gt;&lt;/p&gt;&lt;hr size=&quot;1&quot; style=&quot;border-style:solid;&quot;&gt;&lt;p style=&quot;margin:0px;margin-left:4px;&quot;&gt;&lt;span style=&quot;background-color: transparent; color: light-dark(rgb(0, 0, 0), rgb(255, 255, 255));&quot;&gt;~ drawPanel: DrawPanel&lt;/span&gt;&lt;/p&gt;&lt;hr size=&quot;1&quot; style=&quot;border-style:solid;&quot;&gt;&lt;p style=&quot;margin:0px;margin-left:4px;&quot;&gt;-initComponents(String): void&lt;/p&gt;" style="verticalAlign=top;align=left;overflow=fill;html=1;whiteSpace=wrap;" parent="1" vertex="1">
          <mxGeometry x="1310" y="400" width="160" height="80" as="geometry" />
        </mxCell>
        <mxCell id="TYtJpe8hq0c6kEm3nhar-13" value="&lt;p style=&quot;margin:0px;margin-top:4px;text-align:center;&quot;&gt;&lt;b&gt;Volvo240&lt;/b&gt;&lt;/p&gt;&lt;hr size=&quot;1&quot; style=&quot;border-style:solid;&quot;&gt;&lt;p style=&quot;margin:0px;margin-left:4px;&quot;&gt;- trimFactor: double&lt;/p&gt;&lt;hr size=&quot;1&quot; style=&quot;border-style:solid;&quot;&gt;&lt;p style=&quot;margin:0px;margin-left:4px;&quot;&gt;# speedFactor(): double&lt;/p&gt;" style="verticalAlign=top;align=left;overflow=fill;html=1;whiteSpace=wrap;" parent="1" vertex="1">
          <mxGeometry x="590" y="490" width="160" height="90" as="geometry" />
        </mxCell>
        <mxCell id="TYtJpe8hq0c6kEm3nhar-14" value="&lt;p style=&quot;margin:0px;margin-top:4px;text-align:center;&quot;&gt;&lt;b&gt;CarController&amp;lt;ACar extends Car&amp;gt;&lt;/b&gt;&lt;/p&gt;&lt;hr size=&quot;1&quot; style=&quot;border-style:solid;&quot;&gt;&lt;p style=&quot;margin:0px;margin-left:4px;&quot;&gt;&lt;span style=&quot;background-color: transparent; color: light-dark(rgb(0, 0, 0), rgb(255, 255, 255));&quot;&gt;~(JButtons för varje funktion)&lt;/span&gt;&lt;/p&gt;&lt;p style=&quot;margin:0px;margin-left:4px;&quot;&gt;&lt;span style=&quot;background-color: transparent; color: light-dark(rgb(0, 0, 0), rgb(255, 255, 255));&quot;&gt;~gasSpinner: JSpinner&lt;/span&gt;&lt;/p&gt;&lt;hr size=&quot;1&quot; style=&quot;border-style:solid;&quot;&gt;&lt;p style=&quot;margin:0px;margin-left:4px;&quot;&gt;&lt;span style=&quot;background-color: transparent; color: light-dark(rgb(0, 0, 0), rgb(255, 255, 255));&quot;&gt;+ actionPerformed(ActEv)&lt;/span&gt;&lt;/p&gt;&lt;p style=&quot;margin: 0px 0px 0px 4px;&quot;&gt;&lt;span style=&quot;white-space: pre;&quot;&gt;&#x9;&lt;/span&gt;(för varje knapp)&lt;/p&gt;" style="verticalAlign=top;align=left;overflow=fill;html=1;whiteSpace=wrap;" parent="1" vertex="1">
          <mxGeometry x="1290" y="810" width="200" height="110" as="geometry" />
        </mxCell>
        <mxCell id="TYtJpe8hq0c6kEm3nhar-20" value="" style="endArrow=block;dashed=1;endFill=0;endSize=12;html=1;rounded=0;exitX=0.5;exitY=0;exitDx=0;exitDy=0;" parent="1" source="TYtJpe8hq0c6kEm3nhar-6" target="TYtJpe8hq0c6kEm3nhar-1" edge="1">
          <mxGeometry width="160" relative="1" as="geometry">
            <mxPoint x="690" y="160" as="sourcePoint" />
            <mxPoint x="850" y="160" as="targetPoint" />
          </mxGeometry>
        </mxCell>
        <mxCell id="TYtJpe8hq0c6kEm3nhar-56" value="Implements" style="edgeLabel;html=1;align=center;verticalAlign=middle;resizable=0;points=[];" parent="TYtJpe8hq0c6kEm3nhar-20" vertex="1" connectable="0">
          <mxGeometry x="-0.0214" relative="1" as="geometry">
            <mxPoint y="-1" as="offset" />
          </mxGeometry>
        </mxCell>
        <mxCell id="TYtJpe8hq0c6kEm3nhar-28" value="" style="endArrow=block;dashed=1;endFill=0;endSize=12;html=1;rounded=0;exitX=0.25;exitY=0;exitDx=0;exitDy=0;entryX=0.5;entryY=1;entryDx=0;entryDy=0;" parent="1" source="TYtJpe8hq0c6kEm3nhar-7" target="TYtJpe8hq0c6kEm3nhar-3" edge="1">
          <mxGeometry width="160" relative="1" as="geometry">
            <mxPoint x="410" y="280" as="sourcePoint" />
            <mxPoint x="230" y="160" as="targetPoint" />
            <Array as="points">
              <mxPoint x="430" y="440" />
              <mxPoint x="270" y="440" />
              <mxPoint x="230" y="440" />
            </Array>
          </mxGeometry>
        </mxCell>
        <mxCell id="TYtJpe8hq0c6kEm3nhar-29" value="" style="endArrow=block;dashed=1;endFill=0;endSize=12;html=1;rounded=0;exitX=0.25;exitY=0;exitDx=0;exitDy=0;" parent="1" source="TYtJpe8hq0c6kEm3nhar-4" target="TYtJpe8hq0c6kEm3nhar-3" edge="1">
          <mxGeometry width="160" relative="1" as="geometry">
            <mxPoint x="140" y="240" as="sourcePoint" />
            <mxPoint x="300" y="240" as="targetPoint" />
          </mxGeometry>
        </mxCell>
        <mxCell id="TYtJpe8hq0c6kEm3nhar-33" value="Use" style="endArrow=open;endSize=12;dashed=1;html=1;rounded=0;" parent="1" source="TYtJpe8hq0c6kEm3nhar-8" target="TYtJpe8hq0c6kEm3nhar-6" edge="1">
          <mxGeometry width="160" relative="1" as="geometry">
            <mxPoint x="690" y="150" as="sourcePoint" />
            <mxPoint x="1520" y="730" as="targetPoint" />
            <Array as="points">
              <mxPoint x="50" y="300" />
            </Array>
          </mxGeometry>
        </mxCell>
        <mxCell id="TYtJpe8hq0c6kEm3nhar-34" value="&lt;p style=&quot;margin:0px;margin-top:4px;text-align:center;&quot;&gt;&lt;b&gt;JFrame&lt;/b&gt;&lt;/p&gt;&lt;hr size=&quot;1&quot; style=&quot;border-style:solid;&quot;&gt;&lt;p style=&quot;margin:0px;margin-left:4px;&quot;&gt;+ field: Type&lt;/p&gt;&lt;hr size=&quot;1&quot; style=&quot;border-style:solid;&quot;&gt;&lt;p style=&quot;margin:0px;margin-left:4px;&quot;&gt;+ method(): Type&lt;/p&gt;" style="verticalAlign=top;align=left;overflow=fill;html=1;whiteSpace=wrap;" parent="1" vertex="1">
          <mxGeometry x="1520" y="40" width="160" height="80" as="geometry" />
        </mxCell>
        <mxCell id="TYtJpe8hq0c6kEm3nhar-35" value="&lt;p style=&quot;margin:0px;margin-top:4px;text-align:center;&quot;&gt;&lt;b&gt;JPanel&lt;/b&gt;&lt;/p&gt;&lt;hr size=&quot;1&quot; style=&quot;border-style:solid;&quot;&gt;&lt;p style=&quot;margin:0px;margin-left:4px;&quot;&gt;+ field: Type&lt;/p&gt;&lt;hr size=&quot;1&quot; style=&quot;border-style:solid;&quot;&gt;&lt;p style=&quot;margin:0px;margin-left:4px;&quot;&gt;+ method(): Type&lt;/p&gt;" style="verticalAlign=top;align=left;overflow=fill;html=1;whiteSpace=wrap;" parent="1" vertex="1">
          <mxGeometry x="1310" y="40" width="160" height="90" as="geometry" />
        </mxCell>
        <mxCell id="TYtJpe8hq0c6kEm3nhar-37" value="Extends" style="endArrow=block;endSize=16;endFill=0;html=1;rounded=0;" parent="1" source="TYtJpe8hq0c6kEm3nhar-12" target="TYtJpe8hq0c6kEm3nhar-34" edge="1">
          <mxGeometry width="160" relative="1" as="geometry">
            <mxPoint x="328" y="190" as="sourcePoint" />
            <mxPoint x="488" y="190" as="targetPoint" />
            <Array as="points">
              <mxPoint x="1600" y="440" />
            </Array>
          </mxGeometry>
        </mxCell>
        <mxCell id="TYtJpe8hq0c6kEm3nhar-38" value="Extends" style="endArrow=block;endSize=16;endFill=0;html=1;rounded=0;" parent="1" source="TYtJpe8hq0c6kEm3nhar-5" target="TYtJpe8hq0c6kEm3nhar-35" edge="1">
          <mxGeometry width="160" relative="1" as="geometry">
            <mxPoint x="328" y="190" as="sourcePoint" />
            <mxPoint x="488" y="190" as="targetPoint" />
          </mxGeometry>
        </mxCell>
        <mxCell id="TYtJpe8hq0c6kEm3nhar-40" value="&lt;p style=&quot;text-wrap-mode: wrap; margin: 0px 0px 0px 4px;&quot;&gt;&lt;span style=&quot;background-color: transparent; color: light-dark(rgb(0, 0, 0), rgb(255, 255, 255));&quot;&gt;+ startEngine(): void&lt;/span&gt;&lt;/p&gt;&lt;p style=&quot;text-wrap-mode: wrap; margin: 0px 0px 0px 4px;&quot;&gt;+ stopEnginge(): void&lt;/p&gt;&lt;p style=&quot;text-wrap-mode: wrap; margin: 0px 0px 0px 4px;&quot;&gt;+ &lt;i&gt;speedFactor(): double&lt;/i&gt;&lt;/p&gt;&lt;p style=&quot;text-wrap-mode: wrap; margin: 0px 0px 0px 4px;&quot;&gt;+ gas(double): void&lt;/p&gt;&lt;p style=&quot;text-wrap-mode: wrap; margin: 0px 0px 0px 4px;&quot;&gt;+ brake(double): void&lt;/p&gt;&lt;p style=&quot;text-wrap-mode: wrap; margin: 0px 0px 0px 4px;&quot;&gt;+ incrementSpeed(double): void&lt;/p&gt;&lt;p style=&quot;text-wrap-mode: wrap; margin: 0px 0px 0px 4px;&quot;&gt;+ decrementSpeed(double): void&lt;/p&gt;&lt;p style=&quot;text-wrap-mode: wrap; margin: 0px 0px 0px 4px;&quot;&gt;+ turnLeft(): void&lt;/p&gt;&lt;p style=&quot;text-wrap-mode: wrap; margin: 0px 0px 0px 4px;&quot;&gt;+ turnRight(): void&lt;/p&gt;" style="verticalAlign=top;align=left;overflow=fill;html=1;whiteSpace=wrap;strokeWidth=1;" parent="1" vertex="1">
          <mxGeometry x="570" y="243" width="190" height="167" as="geometry" />
        </mxCell>
        <mxCell id="TYtJpe8hq0c6kEm3nhar-44" value="&lt;p style=&quot;margin: 0px 0px 0px 4px;&quot;&gt;&lt;span style=&quot;background-color: transparent; color: light-dark(rgb(0, 0, 0), rgb(255, 255, 255));&quot;&gt;# nrDoors: int&lt;/span&gt;&lt;/p&gt;&lt;p style=&quot;margin: 0px 0px 0px 4px;&quot;&gt;# enginePower: double&lt;/p&gt;&lt;p style=&quot;margin: 0px 0px 0px 4px;&quot;&gt;# currentSpeed: double&lt;/p&gt;&lt;p style=&quot;margin: 0px 0px 0px 4px;&quot;&gt;# color: Color&lt;/p&gt;&lt;p style=&quot;margin: 0px 0px 0px 4px;&quot;&gt;# modelname: String&lt;/p&gt;&lt;p style=&quot;margin: 0px 0px 0px 4px;&quot;&gt;- direction: int&lt;/p&gt;&lt;p style=&quot;margin: 0px 0px 0px 4px;&quot;&gt;# x: double&lt;/p&gt;&lt;p style=&quot;margin: 0px 0px 0px 4px;&quot;&gt;# y: double&lt;/p&gt;&lt;p style=&quot;margin: 0px 0px 0px 4px;&quot;&gt;# isLoaded: boolean&lt;/p&gt;&lt;p style=&quot;margin: 0px 0px 0px 4px;&quot;&gt;# pic: String&lt;/p&gt;" style="verticalAlign=top;align=left;overflow=fill;html=1;whiteSpace=wrap;" parent="1" vertex="1">
          <mxGeometry x="380" y="243" width="190" height="167" as="geometry" />
        </mxCell>
        <mxCell id="TYtJpe8hq0c6kEm3nhar-46" value="Extends" style="endArrow=block;endSize=16;endFill=0;html=1;rounded=0;" parent="1" source="TYtJpe8hq0c6kEm3nhar-9" target="TYtJpe8hq0c6kEm3nhar-6" edge="1">
          <mxGeometry x="-0.3333" width="160" relative="1" as="geometry">
            <mxPoint x="690" y="440" as="sourcePoint" />
            <mxPoint x="850" y="440" as="targetPoint" />
            <Array as="points">
              <mxPoint x="870" y="460" />
              <mxPoint x="570" y="460" />
            </Array>
            <mxPoint as="offset" />
          </mxGeometry>
        </mxCell>
        <mxCell id="TYtJpe8hq0c6kEm3nhar-47" value="" style="endArrow=block;endSize=16;endFill=0;html=1;rounded=0;" parent="1" source="TYtJpe8hq0c6kEm3nhar-13" target="TYtJpe8hq0c6kEm3nhar-6" edge="1">
          <mxGeometry width="160" relative="1" as="geometry">
            <mxPoint x="640" y="430" as="sourcePoint" />
            <mxPoint x="800" y="430" as="targetPoint" />
            <Array as="points">
              <mxPoint x="670" y="460" />
              <mxPoint x="570" y="460" />
            </Array>
          </mxGeometry>
        </mxCell>
        <mxCell id="TYtJpe8hq0c6kEm3nhar-48" value="" style="endArrow=block;endSize=16;endFill=0;html=1;rounded=0;" parent="1" source="TYtJpe8hq0c6kEm3nhar-7" target="TYtJpe8hq0c6kEm3nhar-6" edge="1">
          <mxGeometry width="160" relative="1" as="geometry">
            <mxPoint x="550" y="650" as="sourcePoint" />
            <mxPoint x="710" y="650" as="targetPoint" />
            <Array as="points">
              <mxPoint x="470" y="460" />
              <mxPoint x="570" y="460" />
            </Array>
          </mxGeometry>
        </mxCell>
        <mxCell id="TYtJpe8hq0c6kEm3nhar-49" value="Extends" style="endArrow=block;endSize=16;endFill=0;html=1;rounded=0;" parent="1" source="TYtJpe8hq0c6kEm3nhar-4" target="TYtJpe8hq0c6kEm3nhar-6" edge="1">
          <mxGeometry x="-0.3333" width="160" relative="1" as="geometry">
            <mxPoint x="540" y="690" as="sourcePoint" />
            <mxPoint x="700" y="690" as="targetPoint" />
            <Array as="points">
              <mxPoint x="270" y="460" />
              <mxPoint x="570" y="460" />
            </Array>
            <mxPoint as="offset" />
          </mxGeometry>
        </mxCell>
        <mxCell id="TYtJpe8hq0c6kEm3nhar-57" value="Implements" style="edgeLabel;html=1;align=center;verticalAlign=middle;resizable=0;points=[];" parent="1" vertex="1" connectable="0">
          <mxGeometry x="580" y="170.42857142857133" as="geometry">
            <mxPoint x="-352" y="-10" as="offset" />
          </mxGeometry>
        </mxCell>
        <mxCell id="TYtJpe8hq0c6kEm3nhar-58" value="Use" style="endArrow=open;endSize=12;dashed=1;html=1;rounded=0;" parent="1" edge="1">
          <mxGeometry width="160" relative="1" as="geometry">
            <mxPoint x="1081" y="37.900000000000006" as="sourcePoint" />
            <mxPoint x="1241" y="37.900000000000006" as="targetPoint" />
            <mxPoint as="offset" />
          </mxGeometry>
        </mxCell>
        <mxCell id="TYtJpe8hq0c6kEm3nhar-61" value="Extends" style="endArrow=block;endSize=16;endFill=0;html=1;rounded=0;" parent="1" edge="1">
          <mxGeometry width="160" relative="1" as="geometry">
            <mxPoint x="1081" y="78.95" as="sourcePoint" />
            <mxPoint x="1241" y="78.95" as="targetPoint" />
          </mxGeometry>
        </mxCell>
        <mxCell id="TYtJpe8hq0c6kEm3nhar-62" value="" style="endArrow=block;dashed=1;endFill=0;endSize=12;html=1;rounded=0;" parent="1" edge="1">
          <mxGeometry width="160" relative="1" as="geometry">
            <mxPoint x="1081" y="98.95000000000003" as="sourcePoint" />
            <mxPoint x="1241" y="98.95000000000003" as="targetPoint" />
          </mxGeometry>
        </mxCell>
        <mxCell id="TYtJpe8hq0c6kEm3nhar-63" value="Implements" style="edgeLabel;html=1;align=center;verticalAlign=middle;resizable=0;points=[];" parent="TYtJpe8hq0c6kEm3nhar-62" vertex="1" connectable="0">
          <mxGeometry x="0.0089" y="1" relative="1" as="geometry">
            <mxPoint x="1" as="offset" />
          </mxGeometry>
        </mxCell>
        <mxCell id="TYtJpe8hq0c6kEm3nhar-64" value="" style="endArrow=open;startArrow=circlePlus;endFill=0;startFill=0;endSize=8;html=1;rounded=0;" parent="1" edge="1">
          <mxGeometry width="160" relative="1" as="geometry">
            <mxPoint x="1081" y="118.95" as="sourcePoint" />
            <mxPoint x="1241" y="118.95" as="targetPoint" />
          </mxGeometry>
        </mxCell>
        <mxCell id="TYtJpe8hq0c6kEm3nhar-65" value="Inner Class" style="edgeLabel;html=1;align=center;verticalAlign=middle;resizable=0;points=[];" parent="TYtJpe8hq0c6kEm3nhar-64" vertex="1" connectable="0">
          <mxGeometry x="-0.0089" relative="1" as="geometry">
            <mxPoint x="-1" as="offset" />
          </mxGeometry>
        </mxCell>
        <mxCell id="TYtJpe8hq0c6kEm3nhar-69" value="" style="endArrow=open;startArrow=circlePlus;endFill=0;startFill=0;endSize=8;html=1;rounded=0;" parent="1" source="TYtJpe8hq0c6kEm3nhar-70" target="SrKAJWU4q9OHrd0QQv9r-2" edge="1">
          <mxGeometry width="160" relative="1" as="geometry">
            <mxPoint x="1838" y="599.52" as="sourcePoint" />
            <mxPoint x="1998" y="599.52" as="targetPoint" />
            <Array as="points" />
          </mxGeometry>
        </mxCell>
        <mxCell id="TYtJpe8hq0c6kEm3nhar-71" value="Inner Class" style="edgeLabel;html=1;align=center;verticalAlign=middle;resizable=0;points=[];" parent="TYtJpe8hq0c6kEm3nhar-69" vertex="1" connectable="0">
          <mxGeometry x="-0.0381" relative="1" as="geometry">
            <mxPoint y="-1" as="offset" />
          </mxGeometry>
        </mxCell>
        <mxCell id="TYtJpe8hq0c6kEm3nhar-70" value="&lt;p style=&quot;margin:0px;margin-top:4px;text-align:center;&quot;&gt;&lt;b&gt;TimerListener&lt;/b&gt;&lt;/p&gt;&lt;hr size=&quot;1&quot; style=&quot;border-style:solid;&quot;&gt;&lt;p style=&quot;margin:0px;margin-left:4px;&quot;&gt;+ field: Type&lt;/p&gt;&lt;hr size=&quot;1&quot; style=&quot;border-style:solid;&quot;&gt;&lt;p style=&quot;margin:0px;margin-left:4px;&quot;&gt;+ actionPerformed(ActEv e): void&lt;/p&gt;" style="verticalAlign=top;align=left;overflow=fill;html=1;whiteSpace=wrap;" parent="1" vertex="1">
          <mxGeometry x="1066" y="288.76" width="190" height="75.48" as="geometry" />
        </mxCell>
        <mxCell id="TYtJpe8hq0c6kEm3nhar-77" value="" style="endArrow=open;endFill=1;endSize=12;html=1;rounded=0;" parent="1" source="TYtJpe8hq0c6kEm3nhar-12" target="TYtJpe8hq0c6kEm3nhar-5" edge="1">
          <mxGeometry width="160" relative="1" as="geometry">
            <mxPoint x="1868" y="564.17" as="sourcePoint" />
            <mxPoint x="2028" y="564.17" as="targetPoint" />
            <Array as="points" />
          </mxGeometry>
        </mxCell>
        <mxCell id="TYtJpe8hq0c6kEm3nhar-79" value="" style="endArrow=open;endFill=1;endSize=12;html=1;rounded=0;" parent="1" source="SrKAJWU4q9OHrd0QQv9r-2" target="TYtJpe8hq0c6kEm3nhar-14" edge="1">
          <mxGeometry width="160" relative="1" as="geometry">
            <mxPoint x="1820" y="600" as="sourcePoint" />
            <mxPoint x="1870" y="500" as="targetPoint" />
            <Array as="points">
              <mxPoint x="1390" y="615" />
            </Array>
          </mxGeometry>
        </mxCell>
        <mxCell id="TYtJpe8hq0c6kEm3nhar-84" value="" style="endArrow=open;endFill=1;endSize=12;html=1;rounded=0;" parent="1" edge="1">
          <mxGeometry width="160" relative="1" as="geometry">
            <mxPoint x="1081" y="58.42" as="sourcePoint" />
            <mxPoint x="1241" y="58.42" as="targetPoint" />
          </mxGeometry>
        </mxCell>
        <mxCell id="TYtJpe8hq0c6kEm3nhar-85" value="Association" style="edgeLabel;html=1;align=center;verticalAlign=middle;resizable=0;points=[];" parent="TYtJpe8hq0c6kEm3nhar-84" vertex="1" connectable="0">
          <mxGeometry x="-0.0446" y="2" relative="1" as="geometry">
            <mxPoint x="3" y="2" as="offset" />
          </mxGeometry>
        </mxCell>
        <mxCell id="TYtJpe8hq0c6kEm3nhar-92" value="" style="endArrow=open;endSize=12;dashed=1;html=1;rounded=0;" parent="1" source="TYtJpe8hq0c6kEm3nhar-97" target="TYtJpe8hq0c6kEm3nhar-40" edge="1">
          <mxGeometry width="160" relative="1" as="geometry">
            <mxPoint x="810" y="279.16999999999996" as="sourcePoint" />
            <mxPoint x="890" y="383" as="targetPoint" />
            <mxPoint as="offset" />
          </mxGeometry>
        </mxCell>
        <mxCell id="TYtJpe8hq0c6kEm3nhar-94" value="Use" style="endArrow=open;endSize=12;dashed=1;html=1;rounded=0;entryX=1;entryY=0.25;entryDx=0;entryDy=0;exitX=0;exitY=0.5;exitDx=0;exitDy=0;" parent="1" source="TYtJpe8hq0c6kEm3nhar-5" target="TYtJpe8hq0c6kEm3nhar-6" edge="1">
          <mxGeometry width="160" relative="1" as="geometry">
            <mxPoint x="1110" y="260" as="sourcePoint" />
            <mxPoint x="770" y="250" as="targetPoint" />
            <mxPoint as="offset" />
            <Array as="points">
              <mxPoint x="1240" y="270" />
              <mxPoint x="1240" y="250" />
              <mxPoint x="1130" y="250" />
            </Array>
          </mxGeometry>
        </mxCell>
        <mxCell id="TYtJpe8hq0c6kEm3nhar-95" value="Use" style="endArrow=open;endSize=12;dashed=1;html=1;rounded=0;" parent="1" source="TYtJpe8hq0c6kEm3nhar-70" target="TYtJpe8hq0c6kEm3nhar-97" edge="1">
          <mxGeometry x="1" y="237" width="160" relative="1" as="geometry">
            <mxPoint x="1110" y="451.69" as="sourcePoint" />
            <mxPoint x="980" y="420.0025" as="targetPoint" />
            <mxPoint x="-237" y="-237" as="offset" />
            <Array as="points" />
          </mxGeometry>
        </mxCell>
        <mxCell id="TYtJpe8hq0c6kEm3nhar-97" value="&lt;p style=&quot;margin:0px;margin-top:4px;text-align:center;&quot;&gt;&lt;b&gt;Movement&lt;/b&gt;&lt;/p&gt;&lt;hr size=&quot;1&quot; style=&quot;border-style:solid;&quot;&gt;&lt;p style=&quot;margin:0px;margin-left:4px;&quot;&gt;- borderCollide(car):void&lt;/p&gt;&lt;p style=&quot;margin:0px;margin-left:4px;&quot;&gt;- workshopCollide(Car): void&lt;/p&gt;&lt;p style=&quot;margin:0px;margin-left:4px;&quot;&gt;- collide(Car): void&lt;/p&gt;&lt;p style=&quot;margin:0px;margin-left:4px;&quot;&gt;+ move(Car, AutoRepairShop): void&lt;/p&gt;&lt;p style=&quot;margin:0px;margin-left:4px;&quot;&gt;&lt;br&gt;&lt;/p&gt;" style="verticalAlign=top;align=left;overflow=fill;html=1;whiteSpace=wrap;" parent="1" vertex="1">
          <mxGeometry x="827" y="276.5" width="200" height="100" as="geometry" />
        </mxCell>
        <mxCell id="gOiXd0cWTa1Fr1QmrL9d-6" value="&lt;p style=&quot;margin:0px;margin-top:4px;text-align:center;&quot;&gt;&lt;i&gt;&amp;lt;&amp;lt;Interface&amp;gt;&amp;gt;&lt;/i&gt;&lt;br&gt;&lt;b&gt;HasTurbo&lt;/b&gt;&lt;/p&gt;&lt;hr size=&quot;1&quot; style=&quot;border-style:solid;&quot;&gt;&lt;p style=&quot;margin:0px;margin-left:4px;&quot;&gt;+ turboOn(): void&lt;/p&gt;&lt;p style=&quot;margin:0px;margin-left:4px;&quot;&gt;+ turboOff(): void&lt;/p&gt;" style="verticalAlign=top;align=left;overflow=fill;html=1;whiteSpace=wrap;strokeWidth=2;" parent="1" vertex="1">
          <mxGeometry x="710" y="40" width="190" height="100" as="geometry" />
        </mxCell>
        <mxCell id="gOiXd0cWTa1Fr1QmrL9d-7" value="" style="endArrow=block;dashed=1;endFill=0;endSize=12;html=1;rounded=0;exitX=0.25;exitY=0;exitDx=0;exitDy=0;entryX=0.5;entryY=1;entryDx=0;entryDy=0;" parent="1" source="TYtJpe8hq0c6kEm3nhar-9" target="gOiXd0cWTa1Fr1QmrL9d-6" edge="1">
          <mxGeometry width="160" relative="1" as="geometry">
            <mxPoint x="580" y="210" as="sourcePoint" />
            <mxPoint x="580" y="150" as="targetPoint" />
            <Array as="points">
              <mxPoint x="830" y="430" />
              <mxPoint x="805" y="430" />
            </Array>
          </mxGeometry>
        </mxCell>
        <mxCell id="gOiXd0cWTa1Fr1QmrL9d-8" value="Implements" style="edgeLabel;html=1;align=center;verticalAlign=middle;resizable=0;points=[];rotation=0;" parent="gOiXd0cWTa1Fr1QmrL9d-7" vertex="1" connectable="0">
          <mxGeometry x="-0.0214" relative="1" as="geometry">
            <mxPoint y="78" as="offset" />
          </mxGeometry>
        </mxCell>
        <mxCell id="gOiXd0cWTa1Fr1QmrL9d-9" value="&lt;p style=&quot;margin:0px;margin-top:4px;text-align:center;&quot;&gt;&lt;b&gt;CarFactory&lt;/b&gt;&lt;/p&gt;&lt;hr size=&quot;1&quot; style=&quot;border-style:solid;&quot;&gt;&lt;p style=&quot;margin:0px;margin-left:4px;&quot;&gt;~ &lt;u&gt;createSaab95(int, int)&lt;/u&gt;: Saab95&lt;/p&gt;&lt;p style=&quot;margin:0px;margin-left:4px;&quot;&gt;~ &lt;u&gt;createVolvo240(int,int)&lt;/u&gt;: Volvo240&lt;/p&gt;&lt;p style=&quot;margin:0px;margin-left:4px;&quot;&gt;~ &lt;u&gt;createScania(int, int)&lt;/u&gt;: Scania&lt;/p&gt;" style="verticalAlign=top;align=left;overflow=fill;html=1;whiteSpace=wrap;" parent="1" vertex="1">
          <mxGeometry x="570" y="705.48" width="200" height="90" as="geometry" />
        </mxCell>
        <mxCell id="gOiXd0cWTa1Fr1QmrL9d-10" value="" style="endArrow=open;endSize=12;dashed=1;html=1;rounded=0;" parent="1" source="gOiXd0cWTa1Fr1QmrL9d-9" target="TYtJpe8hq0c6kEm3nhar-7" edge="1">
          <mxGeometry x="-0.6542" width="160" relative="1" as="geometry">
            <mxPoint x="695" y="1058" as="sourcePoint" />
            <mxPoint x="490" y="730" as="targetPoint" />
            <mxPoint as="offset" />
            <Array as="points">
              <mxPoint x="670" y="680" />
              <mxPoint x="470" y="680" />
            </Array>
          </mxGeometry>
        </mxCell>
        <mxCell id="gOiXd0cWTa1Fr1QmrL9d-11" value="" style="endArrow=open;endSize=12;dashed=1;html=1;rounded=0;" parent="1" source="gOiXd0cWTa1Fr1QmrL9d-9" target="TYtJpe8hq0c6kEm3nhar-9" edge="1">
          <mxGeometry x="-0.6542" width="160" relative="1" as="geometry">
            <mxPoint x="1070" y="828" as="sourcePoint" />
            <mxPoint x="865" y="500" as="targetPoint" />
            <mxPoint as="offset" />
            <Array as="points">
              <mxPoint x="670" y="680" />
              <mxPoint x="870" y="680" />
            </Array>
          </mxGeometry>
        </mxCell>
        <mxCell id="gOiXd0cWTa1Fr1QmrL9d-12" value="Use" style="endArrow=open;endSize=12;dashed=1;html=1;rounded=0;" parent="1" source="gOiXd0cWTa1Fr1QmrL9d-9" target="TYtJpe8hq0c6kEm3nhar-13" edge="1">
          <mxGeometry x="-0.6542" width="160" relative="1" as="geometry">
            <mxPoint x="1025" y="888" as="sourcePoint" />
            <mxPoint x="820" y="560" as="targetPoint" />
            <mxPoint as="offset" />
            <Array as="points" />
          </mxGeometry>
        </mxCell>
        <mxCell id="gOiXd0cWTa1Fr1QmrL9d-14" value="" style="endArrow=open;endSize=12;dashed=1;html=1;rounded=0;" parent="1" source="SrKAJWU4q9OHrd0QQv9r-2" target="gOiXd0cWTa1Fr1QmrL9d-9" edge="1">
          <mxGeometry x="-0.6542" width="160" relative="1" as="geometry">
            <mxPoint x="1235" y="798" as="sourcePoint" />
            <mxPoint x="1030" y="470" as="targetPoint" />
            <mxPoint as="offset" />
            <Array as="points">
              <mxPoint x="930" y="615" />
              <mxPoint x="930" y="750" />
            </Array>
          </mxGeometry>
        </mxCell>
        <mxCell id="gOiXd0cWTa1Fr1QmrL9d-15" value="(Ny)" style="text;html=1;align=center;verticalAlign=middle;resizable=0;points=[];autosize=1;strokeColor=none;fillColor=none;strokeWidth=1;fontSize=16;" parent="1" vertex="1">
          <mxGeometry x="1081" y="480" width="50" height="30" as="geometry" />
        </mxCell>
        <mxCell id="r5k1zx-1wB-iWtD8nJ9v-3" value="Use" style="endArrow=open;endSize=12;dashed=1;html=1;rounded=0;" parent="1" source="SrKAJWU4q9OHrd0QQv9r-2" target="r5k1zx-1wB-iWtD8nJ9v-1" edge="1">
          <mxGeometry x="-0.7704" width="160" relative="1" as="geometry">
            <mxPoint x="1200" y="608" as="sourcePoint" />
            <mxPoint x="780" y="760" as="targetPoint" />
            <mxPoint as="offset" />
            <Array as="points">
              <mxPoint x="930" y="615" />
              <mxPoint x="930" y="750" />
              <mxPoint x="930" y="885" />
            </Array>
          </mxGeometry>
        </mxCell>
        <mxCell id="r5k1zx-1wB-iWtD8nJ9v-4" value="Use" style="endArrow=open;endSize=12;dashed=1;html=1;rounded=0;" parent="1" source="r5k1zx-1wB-iWtD8nJ9v-1" target="TYtJpe8hq0c6kEm3nhar-8" edge="1">
          <mxGeometry x="-0.6499" y="-1" width="160" relative="1" as="geometry">
            <mxPoint x="414" y="720" as="sourcePoint" />
            <mxPoint x="2" y="1052" as="targetPoint" />
            <mxPoint as="offset" />
            <Array as="points">
              <mxPoint x="50" y="890" />
              <mxPoint x="50" y="820" />
            </Array>
          </mxGeometry>
        </mxCell>
        <mxCell id="SrKAJWU4q9OHrd0QQv9r-2" value="&lt;p style=&quot;margin:0px;margin-top:4px;text-align:center;&quot;&gt;&lt;b&gt;Application&lt;/b&gt;&lt;/p&gt;&lt;hr size=&quot;1&quot; style=&quot;border-style:solid;&quot;&gt;&lt;p style=&quot;margin: 0px 0px 0px 4px;&quot;&gt;~frame: CarView&lt;/p&gt;&lt;p style=&quot;margin: 0px 0px 0px 4px;&quot;&gt;~cc: CarController&lt;/p&gt;&lt;p style=&quot;margin: 0px 0px 0px 4px;&quot;&gt;~cars: ArrayList&amp;lt;Car&amp;gt;&lt;/p&gt;&lt;p style=&quot;margin: 0px 0px 0px 4px;&quot;&gt;~workshops:&amp;nbsp;&lt;/p&gt;&lt;p style=&quot;margin: 0px 0px 0px 4px;&quot;&gt;&amp;nbsp; ArrayList&amp;lt;AutoRepairShop&amp;gt;&lt;/p&gt;&lt;p style=&quot;margin: 0px 0px 0px 4px;&quot;&gt;# X: int&lt;/p&gt;&lt;p style=&quot;margin: 0px 0px 0px 4px;&quot;&gt;-&amp;nbsp; Y: int&lt;/p&gt;&lt;p style=&quot;margin: 0px 0px 0px 4px;&quot;&gt;# paneY: int&lt;/p&gt;&lt;p style=&quot;margin: 0px 0px 0px 4px;&quot;&gt;- delay: int&lt;/p&gt;&lt;p style=&quot;margin: 0px 0px 0px 4px;&quot;&gt;- timer: Timer&lt;/p&gt;&lt;hr size=&quot;1&quot; style=&quot;border-style:solid;&quot;&gt;&lt;p style=&quot;margin:0px;margin-left:4px;&quot;&gt;+ &lt;u&gt;main(String[]args): void&lt;/u&gt;&lt;/p&gt;&lt;p style=&quot;margin:0px;margin-left:4px;&quot;&gt;&lt;u&gt;&lt;br&gt;&lt;/u&gt;&lt;/p&gt;" style="verticalAlign=top;align=left;overflow=fill;html=1;whiteSpace=wrap;" vertex="1" parent="1">
          <mxGeometry x="1081" y="510" width="160" height="210" as="geometry" />
        </mxCell>
        <mxCell id="SrKAJWU4q9OHrd0QQv9r-3" value="&lt;p style=&quot;margin:0px;margin-top:4px;text-align:center;&quot;&gt;&lt;b&gt;ButtonFuctions&lt;/b&gt;&lt;/p&gt;&lt;hr size=&quot;1&quot; style=&quot;border-style:solid;&quot;&gt;&lt;p style=&quot;margin:0px;margin-left:4px;&quot;&gt;&lt;span style=&quot;background-color: transparent; color: light-dark(rgb(0, 0, 0), rgb(255, 255, 255));&quot;&gt;# gas(int): void&lt;/span&gt;&lt;/p&gt;&lt;p style=&quot;margin: 0px 0px 0px 4px;&quot;&gt;# brake(int): void&lt;/p&gt;&lt;p style=&quot;margin: 0px 0px 0px 4px;&quot;&gt;# startEngine(): void&lt;/p&gt;&lt;p style=&quot;margin: 0px 0px 0px 4px;&quot;&gt;# stopEngine(): void&lt;/p&gt;&lt;p style=&quot;margin: 0px 0px 0px 4px;&quot;&gt;# turnRight(): void&lt;/p&gt;&lt;p style=&quot;margin: 0px 0px 0px 4px;&quot;&gt;# turnTurn(): void&lt;/p&gt;&lt;p style=&quot;margin: 0px 0px 0px 4px;&quot;&gt;# turboOn(): void&lt;/p&gt;&lt;p style=&quot;margin: 0px 0px 0px 4px;&quot;&gt;# turboOff(): void&lt;/p&gt;&lt;p style=&quot;margin: 0px 0px 0px 4px;&quot;&gt;# liftBed():&amp;nbsp; void&lt;/p&gt;&lt;p style=&quot;margin: 0px 0px 0px 4px;&quot;&gt;# lowerBed(): void&lt;/p&gt;" style="verticalAlign=top;align=left;overflow=fill;html=1;whiteSpace=wrap;" vertex="1" parent="1">
          <mxGeometry x="1081" y="775" width="160" height="180" as="geometry" />
        </mxCell>
        <mxCell id="SrKAJWU4q9OHrd0QQv9r-5" value="Use" style="endArrow=open;endSize=12;dashed=1;html=1;rounded=0;" edge="1" parent="1" source="TYtJpe8hq0c6kEm3nhar-14" target="SrKAJWU4q9OHrd0QQv9r-3">
          <mxGeometry width="160" relative="1" as="geometry">
            <mxPoint x="1610" y="450" as="sourcePoint" />
            <mxPoint x="1770" y="450" as="targetPoint" />
            <mxPoint as="offset" />
          </mxGeometry>
        </mxCell>
        <mxCell id="SrKAJWU4q9OHrd0QQv9r-6" value="" style="endArrow=open;endFill=1;endSize=12;html=1;rounded=0;" edge="1" parent="1" source="SrKAJWU4q9OHrd0QQv9r-2" target="TYtJpe8hq0c6kEm3nhar-12">
          <mxGeometry width="160" relative="1" as="geometry">
            <mxPoint x="1300" y="520" as="sourcePoint" />
            <mxPoint x="1710" y="604" as="targetPoint" />
            <Array as="points">
              <mxPoint x="1390" y="615" />
            </Array>
          </mxGeometry>
        </mxCell>
        <mxCell id="SrKAJWU4q9OHrd0QQv9r-7" value="Association" style="edgeLabel;html=1;align=center;verticalAlign=middle;resizable=0;points=[];" vertex="1" connectable="0" parent="SrKAJWU4q9OHrd0QQv9r-6">
          <mxGeometry x="-0.0446" y="2" relative="1" as="geometry">
            <mxPoint x="-57" y="2" as="offset" />
          </mxGeometry>
        </mxCell>
        <mxCell id="SrKAJWU4q9OHrd0QQv9r-11" value="" style="swimlane;startSize=0;fillColor=#dae8fc;strokeColor=#6c8ebf;strokeWidth=2;" vertex="1" parent="1">
          <mxGeometry x="1060" y="755" width="450" height="215" as="geometry" />
        </mxCell>
        <mxCell id="SrKAJWU4q9OHrd0QQv9r-12" value="Controller" style="text;html=1;align=center;verticalAlign=middle;resizable=0;points=[];autosize=1;strokeColor=#6c8ebf;fillColor=#dae8fc;" vertex="1" parent="SrKAJWU4q9OHrd0QQv9r-11">
          <mxGeometry x="370" y="1.7763568394002505e-14" width="80" height="30" as="geometry" />
        </mxCell>
        <mxCell id="r5k1zx-1wB-iWtD8nJ9v-2" value="(Ny)" style="text;html=1;align=center;verticalAlign=middle;resizable=0;points=[];autosize=1;strokeColor=none;fillColor=none;strokeWidth=1;fontSize=16;" parent="SrKAJWU4q9OHrd0QQv9r-11" vertex="1">
          <mxGeometry x="20" y="-5" width="50" height="30" as="geometry" />
        </mxCell>
        <mxCell id="SrKAJWU4q9OHrd0QQv9r-13" value="" style="swimlane;startSize=0;fillColor=#f8cecc;strokeColor=#b85450;strokeWidth=2;" vertex="1" parent="1">
          <mxGeometry x="1270" y="160" width="240" height="350" as="geometry" />
        </mxCell>
        <mxCell id="SrKAJWU4q9OHrd0QQv9r-14" value="View" style="text;html=1;align=center;verticalAlign=middle;resizable=0;points=[];autosize=1;strokeColor=#b85450;fillColor=#f8cecc;" vertex="1" parent="SrKAJWU4q9OHrd0QQv9r-13">
          <mxGeometry x="190" y="1.7763568394002505e-14" width="50" height="30" as="geometry" />
        </mxCell>
        <mxCell id="SrKAJWU4q9OHrd0QQv9r-15" value="" style="swimlane;startSize=0;fillColor=#d5e8d4;strokeColor=#82b366;strokeWidth=2;" vertex="1" parent="1">
          <mxGeometry x="-60" y="20" width="1100" height="950" as="geometry" />
        </mxCell>
        <mxCell id="SrKAJWU4q9OHrd0QQv9r-16" value="Model" style="text;html=1;align=center;verticalAlign=middle;resizable=0;points=[];autosize=1;strokeColor=#82b366;fillColor=#d5e8d4;" vertex="1" parent="SrKAJWU4q9OHrd0QQv9r-15">
          <mxGeometry x="1040" y="1.7763568394002505e-14" width="60" height="30" as="geometry" />
        </mxCell>
        <mxCell id="r5k1zx-1wB-iWtD8nJ9v-1" value="&lt;p style=&quot;margin:0px;margin-top:4px;text-align:center;&quot;&gt;&lt;b&gt;RepairShopFactory&lt;/b&gt;&lt;/p&gt;&lt;hr size=&quot;1&quot; style=&quot;border-style:solid;&quot;&gt;&lt;p style=&quot;margin:0px;margin-left:4px;&quot;&gt;~ &lt;u&gt;createSaabWorkshop(int, int, int)&lt;/u&gt;:&amp;nbsp;&lt;/p&gt;&lt;p style=&quot;margin:0px;margin-left:4px;&quot;&gt;&amp;nbsp; &amp;nbsp;AutoRepairShop&amp;lt;Saab95&amp;gt;&lt;/p&gt;&lt;p style=&quot;margin:0px;margin-left:4px;&quot;&gt;~ &lt;u&gt;createVolvoWorkshop(int,int,int)&lt;/u&gt;:&amp;nbsp; &amp;nbsp; &amp;nbsp; &amp;nbsp; &amp;nbsp; &amp;nbsp;AutoRepairShop&amp;lt;Volvo&amp;gt;&lt;/p&gt;&lt;p style=&quot;margin:0px;margin-left:4px;&quot;&gt;~ &lt;u&gt;createScaniaWorkshop(int, int,int)&lt;/u&gt;:&amp;nbsp; &amp;nbsp; &amp;nbsp; &amp;nbsp; &amp;nbsp;AutoRepairShop&amp;lt;Scania&amp;gt;&lt;/p&gt;" style="verticalAlign=top;align=left;overflow=fill;html=1;whiteSpace=wrap;" parent="SrKAJWU4q9OHrd0QQv9r-15" vertex="1">
          <mxGeometry x="622.5" y="795" width="215" height="140" as="geometry" />
        </mxCell>
      </root>
    </mxGraphModel>
  </diagram>
</mxfile>
